<?xml version="1.0" encoding="utf-8"?>
<!-- Generator: Adobe Illustrator 12.0.0, SVG Export Plug-In . SVG Version: 6.00 Build 51448)  -->
<!DOCTYPE svg PUBLIC "-//W3C//DTD SVG 1.1//EN" "http://www.w3.org/Graphics/SVG/1.1/DTD/svg11.dtd" [
	<!ENTITY ns_svg "http://www.w3.org/2000/svg">
	<!ENTITY ns_xlink "http://www.w3.org/1999/xlink">
]>
<svg  version="1.1" xmlns="&ns_svg;" xmlns:xlink="&ns_xlink;" width="182.16" height="133.104" viewBox="0 0 182.16 133.104"
	 overflow="visible" enable-background="new 0 0 182.16 133.104" xml:space="preserve">
<g id="Hintergrund">
</g>
<g id="Hilfslinien_anzeigen" display="none">
</g>
<g id="Vordergrund">
	<g>
		<g>
			<g>
				<path fill-rule="evenodd" clip-rule="evenodd" d="M56.483,102.976h3.253l0.042-0.201l-0.824-0.22l0.881-4.887h0.576
					c0.766,0,0.577,0.641,0.783,1.739h0.346l0.214-2.16h-5.346l-0.396,2.16h0.346c0.552-1.089,0.618-1.739,1.367-1.739h0.577
					l-0.881,4.887l-0.898,0.22L56.483,102.976z"/>
				<path fill-rule="evenodd" clip-rule="evenodd" d="M64.541,101.118h-0.338c-0.107,0.266-0.725,1.583-1.516,1.583
					c-0.346,0-0.502-0.174-0.502-0.687c0-0.421,0.107-0.833,0.115-0.961l2.414-1.125c0.033-0.202,0.099-0.421,0.099-0.641
					c0-0.513-0.502-0.577-1.235-0.577c-1.903,0-2.825,1.391-2.825,3.121c0,0.915,0.494,1.272,1.408,1.272
					c0.758,0,1.343-0.311,1.969-0.595L64.541,101.118z M62.35,100.834c0.173-0.695,0.7-1.793,1.046-1.793
					c0.066,0,0.115,0.055,0.115,0.165c0,0.183-0.115,0.476-0.222,0.769c-0.116,0.311-0.19,0.421-0.264,0.458L62.35,100.834z"/>
				<path fill-rule="evenodd" clip-rule="evenodd" d="M68.09,102.372l-0.041-0.183l-0.906,0.11
					c-0.008-0.146-0.033-0.284-0.033-0.412c0-0.146,0.041-0.458,0.107-0.723l0.956-4.686l-2.652,0.384l0.058,0.183l1.096,0.11
					l-0.832,4.1c-0.041,0.21-0.083,0.641-0.083,0.833c0,0.238,0.042,0.696,0.124,1.016L68.09,102.372z"/>
				<path fill-rule="evenodd" clip-rule="evenodd" d="M69.657,103.104c0.404,0,0.741-0.448,0.741-0.942
					c0-0.449-0.28-0.796-0.692-0.796c-0.461,0-0.741,0.503-0.741,0.897C68.965,102.83,69.253,103.104,69.657,103.104z"/>
				<path fill-rule="evenodd" clip-rule="evenodd" d="M77.04,103.104c1.977,0,2.652-2.397,2.652-4.191
					c0-1.089-0.634-1.794-1.705-1.794c-2.216,0-2.727,2.755-2.727,4.073C75.26,102.646,76.051,103.104,77.04,103.104z
					 M76.537,102.134c0-0.714,0.65-4.686,1.516-4.686c0.197,0,0.362,0.156,0.362,0.549c0,0.852-0.651,4.778-1.516,4.778
					C76.661,102.775,76.537,102.592,76.537,102.134z"/>
				<path fill-rule="evenodd" clip-rule="evenodd" d="M81.25,98.785h0.346l0.313-0.54c0.255-0.449,0.527-0.76,0.922-0.76
					c0.305,0,0.56,0.293,0.56,0.851c0,1.153-0.873,1.464-1.441,1.583l-0.066,0.284c0.14-0.009,0.272-0.027,0.412-0.027
					c0.568,0,0.947,0.43,0.947,1.116c0,0.86-0.47,1.483-1.03,1.483c-0.502,0-0.766-0.43-0.939-0.97l-0.214-0.668h-0.396
					l-0.107,1.574c0.321,0.101,1.096,0.394,2.026,0.394c1.318,0,2.191-0.75,2.191-1.785c0-1.199-1.087-1.299-1.919-1.373v-0.018
					c0.881-0.192,2.067-0.385,2.067-1.574c0-0.989-0.898-1.236-1.647-1.236c-0.782,0-1.211,0.146-1.837,0.339L81.25,98.785z"/>
				<polygon fill-rule="evenodd" clip-rule="evenodd" points="85.453,102.976 89.151,102.976 89.201,102.775 88.097,102.573 
					89.085,97.119 86.194,97.75 86.153,97.942 87.413,98.052 86.598,102.573 85.494,102.775 				"/>
				<polygon fill-rule="evenodd" clip-rule="evenodd" points="89.878,102.976 93.576,102.976 93.625,102.775 92.522,102.573 
					93.51,97.119 90.619,97.75 90.578,97.942 91.838,98.052 91.023,102.573 89.919,102.775 				"/>
				<path fill-rule="evenodd" clip-rule="evenodd" d="M94.904,102.976h4.102l0.429-2.379h-0.231l-0.329,0.732
					c-0.124,0.275-0.264,0.421-0.708,0.421h-2.348v-0.018l1.104-0.668c0.931-0.577,2.553-1.629,2.553-2.709
					c0-0.989-0.964-1.236-1.746-1.236c-0.783,0-1.211,0.156-1.837,0.339l-0.189,1.327h0.346l0.313-0.54
					c0.255-0.449,0.527-0.76,0.922-0.76c0.362,0,0.659,0.293,0.659,0.851c0,0.961-1.038,2.078-1.729,2.7l-1.128,1.016
					L94.904,102.976z"/>
				<polygon fill-rule="evenodd" clip-rule="evenodd" points="100.161,103.104 100.655,103.104 103.406,96.478 102.912,96.478 				
					"/>
				<path fill-rule="evenodd" clip-rule="evenodd" d="M103.424,102.976h4.102l0.429-2.379h-0.231l-0.329,0.732
					c-0.124,0.275-0.264,0.421-0.708,0.421h-2.348v-0.018l1.104-0.668c0.931-0.577,2.553-1.629,2.553-2.709
					c0-0.989-0.964-1.236-1.746-1.236c-0.783,0-1.211,0.156-1.837,0.339l-0.189,1.327h0.346l0.313-0.54
					c0.255-0.449,0.527-0.76,0.922-0.76c0.362,0,0.659,0.293,0.659,0.851c0,0.961-1.038,2.078-1.729,2.7l-1.128,1.016
					L103.424,102.976z"/>
				<path fill-rule="evenodd" clip-rule="evenodd" d="M113.368,98.729l0.264-1.309c-0.527-0.156-1.071-0.302-1.623-0.302
					c-2.109,0-2.858,2.114-2.858,4.137c0,1.309,0.602,1.849,1.82,1.849c1.491,0,2.224-0.75,2.224-2.425
					c0-0.595-0.214-1.382-1.096-1.382c-0.684,0-1.071,0.513-1.351,0.897l-0.017-0.018c0.132-0.659,0.494-2.691,1.499-2.691
					c0.602,0,0.708,0.814,0.815,1.245H113.368z M110.551,101.951c0-0.723,0.165-1.775,0.774-1.775c0.288,0,0.403,0.274,0.403,0.631
					c0,0.521-0.115,1.968-0.741,1.968C110.708,102.775,110.551,102.637,110.551,101.951z"/>
				<path fill-rule="evenodd" clip-rule="evenodd" d="M114.086,102.976h4.102l0.428-2.379h-0.23l-0.329,0.732
					c-0.124,0.275-0.264,0.421-0.709,0.421H115v-0.018l1.104-0.668c0.931-0.577,2.553-1.629,2.553-2.709
					c0-0.989-0.964-1.236-1.746-1.236c-0.783,0-1.211,0.156-1.837,0.339l-0.189,1.327h0.346l0.313-0.54
					c0.255-0.449,0.527-0.76,0.923-0.76c0.362,0,0.659,0.293,0.659,0.851c0,0.961-1.038,2.078-1.729,2.7l-1.128,1.016
					L114.086,102.976z"/>
				<path fill-rule="evenodd" clip-rule="evenodd" d="M119.862,101.494l-0.263,1.309c0.527,0.155,1.071,0.302,1.623,0.302
					c2.125,0,2.875-2.15,2.875-4.137c0-1.309-0.601-1.849-1.837-1.849c-1.491,0-2.224,0.75-2.224,2.425
					c0,0.595,0.214,1.382,1.095,1.382c0.684,0,1.071-0.512,1.351-0.897l0.017,0.019c-0.132,0.659-0.495,2.691-1.5,2.691
					c-0.601,0-0.708-0.815-0.815-1.245H119.862z M121.501,99.416c0-0.503,0.115-1.968,0.741-1.968c0.289,0,0.453,0.156,0.453,0.824
					c0,0.723-0.156,1.775-0.791,1.775C121.616,100.047,121.501,99.773,121.501,99.416z"/>
			</g>
			<g>
				<path fill-rule="evenodd" clip-rule="evenodd" d="M8.25,92.024h3.418l0.041-0.202l-0.988-0.22l0.437-2.457l0.922,0.046
					l0.042,0.981h0.185l0.412-2.267h-0.181l-0.398,0.92l-0.931,0.046l0.395-2.155h1.214c0.741,0,0.601,0.448,0.75,1.537h0.329
					l0.371-1.958H9.288l-0.041,0.202l0.824,0.22l-0.882,4.887l-0.897,0.22L8.25,92.024z"/>
				<path fill-rule="evenodd" clip-rule="evenodd" d="M19.03,91.42l-0.033-0.174l-0.922,0.119c-0.025-0.165-0.05-0.33-0.05-0.531
					c0-1.052,0.56-2.48,0.774-3.148l-1.507,0.476c-0.33-0.22-0.708-0.403-1.087-0.403c-1.384,0-2.331,2.315-2.331,3.332
					c0,0.705,0.33,1.062,0.873,1.062c1.203,0,1.903-1.785,2.241-2.553l0.017,0.018c-0.157,0.705-0.28,1.263-0.28,1.647
					c0,0.311,0.066,0.641,0.198,0.888L19.03,91.42z M15.308,91.082c0-0.814,0.939-2.828,1.466-2.828c0.189,0,0.272,0.11,0.371,0.21
					c-0.165,0.531-0.988,2.865-1.647,2.865C15.357,91.329,15.308,91.191,15.308,91.082z"/>
				<path fill-rule="evenodd" clip-rule="evenodd" d="M21.092,92.061c0.263-1.007,1.194-3.441,1.63-3.441
					c0.066,0,0.107,0.037,0.107,0.146s-0.296,1.474-0.733,3.185l1.293,0.11c0.222-0.732,1.252-3.441,1.705-3.441
					c0.074,0,0.082,0.073,0.082,0.146c0,0.119-0.033,0.229-0.066,0.348c-0.247,0.769-0.519,1.5-0.519,1.967
					c0,0.357,0.033,0.723,0.296,1.071l2.043-0.732l-0.042-0.183l-0.914,0.109c-0.033-0.146-0.033-0.265-0.033-0.384
					c0-0.146,0.074-0.467,0.239-0.97l0.214-0.714c0.091-0.311,0.165-0.604,0.165-0.934c0-0.293-0.19-0.586-0.593-0.586
					c-1.104,0-1.647,1.428-2.191,2.508l-0.017-0.019c0.148-0.668,0.346-1.647,0.346-1.885c0-0.375-0.132-0.604-0.577-0.604
					c-1.178,0-1.722,1.748-2.142,2.618l-0.017-0.019c0.255-0.869,0.379-1.437,0.379-2.599l-2.282,0.476l0.058,0.183L20.4,88.51
					c0,0.732-0.264,2.142-0.61,3.441L21.092,92.061z"/>
				<path fill-rule="evenodd" clip-rule="evenodd" d="M30.384,91.42l-0.041-0.183l-0.898,0.109
					c-0.025-0.155-0.033-0.292-0.033-0.412c0-0.11,0.041-0.402,0.107-0.631c0.214-0.741,0.593-1.73,0.593-2.544l-2.413,0.476
					l0.058,0.183l0.922,0.091c-0.23,0.879-0.618,1.647-0.618,2.572c0,0.339,0.074,0.714,0.198,1.071L30.384,91.42z M28.918,86.377
					c0,0.567,0.321,0.906,0.7,0.906c0.429,0,0.733-0.421,0.733-0.943c0-0.412-0.247-0.814-0.7-0.814
					C29.264,85.526,28.918,85.938,28.918,86.377z"/>
				<path fill-rule="evenodd" clip-rule="evenodd" d="M33.622,91.42l-0.041-0.183l-0.906,0.109
					c-0.008-0.146-0.033-0.283-0.033-0.412c0-0.146,0.041-0.458,0.107-0.723l0.956-4.686l-2.652,0.384l0.058,0.183l1.096,0.11
					l-0.832,4.1c-0.041,0.21-0.083,0.641-0.083,0.833c0,0.238,0.042,0.695,0.124,1.016L33.622,91.42z"/>
				<path fill-rule="evenodd" clip-rule="evenodd" d="M36.917,91.42l-0.041-0.183l-0.898,0.109
					c-0.024-0.155-0.033-0.292-0.033-0.412c0-0.11,0.041-0.402,0.107-0.631c0.214-0.741,0.593-1.73,0.593-2.544l-2.414,0.476
					l0.058,0.183l0.922,0.091c-0.23,0.879-0.618,1.647-0.618,2.572c0,0.339,0.074,0.714,0.198,1.071L36.917,91.42z M35.452,86.377
					c0,0.567,0.321,0.906,0.7,0.906c0.429,0,0.733-0.421,0.733-0.943c0-0.412-0.247-0.814-0.7-0.814
					C35.797,85.526,35.452,85.938,35.452,86.377z"/>
				<path fill-rule="evenodd" clip-rule="evenodd" d="M41.325,90.167h-0.338c-0.107,0.265-0.725,1.583-1.516,1.583
					c-0.346,0-0.502-0.174-0.502-0.686c0-0.421,0.107-0.833,0.115-0.961l2.414-1.125c0.033-0.201,0.099-0.421,0.099-0.641
					c0-0.512-0.502-0.577-1.235-0.577c-1.903,0-2.825,1.391-2.825,3.121c0,0.915,0.494,1.272,1.409,1.272
					c0.758,0,1.342-0.311,1.968-0.595L41.325,90.167z M39.134,89.883c0.173-0.696,0.7-1.794,1.046-1.794
					c0.066,0,0.115,0.055,0.115,0.165c0,0.183-0.115,0.476-0.222,0.769c-0.116,0.311-0.189,0.421-0.264,0.458L39.134,89.883z"/>
				<polygon fill-rule="evenodd" clip-rule="evenodd" points="45.045,92.024 48.216,92.024 48.257,91.823 47.516,91.603 
					47.903,89.425 48.249,89.141 49.246,92.024 51.469,92.024 51.511,91.823 50.67,91.603 49.386,88.116 51.255,86.716 
					52.112,86.497 52.153,86.295 49.863,86.295 49.822,86.497 50.481,86.716 47.96,89.187 47.944,89.169 48.397,86.716 
					49.212,86.497 49.254,86.295 46.132,86.295 46.091,86.497 46.865,86.716 45.984,91.603 45.086,91.823 				"/>
				<path fill-rule="evenodd" clip-rule="evenodd" d="M57.232,91.42l-0.033-0.174l-0.923,0.119c-0.024-0.165-0.049-0.33-0.049-0.531
					c0-1.052,0.56-2.48,0.774-3.148l-1.507,0.476c-0.33-0.22-0.708-0.403-1.087-0.403c-1.384,0-2.331,2.315-2.331,3.332
					c0,0.705,0.33,1.062,0.873,1.062c1.203,0,1.903-1.785,2.241-2.553l0.017,0.018c-0.157,0.705-0.28,1.263-0.28,1.647
					c0,0.311,0.066,0.641,0.198,0.888L57.232,91.42z M53.509,91.082c0-0.814,0.939-2.828,1.466-2.828c0.189,0,0.272,0.11,0.371,0.21
					c-0.165,0.531-0.988,2.865-1.647,2.865C53.559,91.329,53.509,91.191,53.509,91.082z"/>
				<path fill-rule="evenodd" clip-rule="evenodd" d="M59.359,92.061c0.387-1.153,0.898-2.984,1.573-2.984
					c0.214,0,0.396,0.083,0.568,0.156l0.42-1.236c-0.148-0.091-0.305-0.238-0.536-0.238c-0.675,0-1.351,1.647-1.672,2.489
					l-0.017-0.018c0.14-0.577,0.321-1.345,0.321-2.471l-2.306,0.476l0.058,0.183l0.897,0.091c-0.008,0.732-0.263,2.142-0.609,3.441
					L59.359,92.061z"/>
				<path fill-rule="evenodd" clip-rule="evenodd" d="M63.751,92.061c0.272-0.97,1.137-3.441,1.779-3.441
					c0.074,0,0.116,0.073,0.116,0.146c0,0.119-0.033,0.229-0.066,0.348c-0.247,0.769-0.519,1.5-0.519,1.967
					c0,0.357,0.016,0.696,0.296,1.071L67.4,91.42l-0.042-0.183l-0.914,0.109c-0.025-0.146-0.033-0.265-0.033-0.384
					c0-0.146,0.083-0.467,0.239-0.97l0.214-0.714c0.091-0.311,0.165-0.604,0.165-0.934s-0.239-0.586-0.725-0.586
					c-1.161,0-1.878,1.757-2.257,2.618l-0.017-0.019c0.247-0.869,0.379-1.437,0.379-2.599l-2.281,0.476l0.058,0.183l0.873,0.091
					c0,0.732-0.272,2.142-0.61,3.441L63.751,92.061z"/>
				<path fill-rule="evenodd" clip-rule="evenodd" d="M71.926,90.167h-0.338c-0.107,0.265-0.725,1.583-1.515,1.583
					c-0.346,0-0.502-0.174-0.502-0.686c0-0.421,0.107-0.833,0.115-0.961l2.413-1.125c0.033-0.201,0.099-0.421,0.099-0.641
					c0-0.512-0.502-0.577-1.236-0.577c-1.902,0-2.825,1.391-2.825,3.121c0,0.915,0.494,1.272,1.408,1.272
					c0.758,0,1.343-0.311,1.969-0.595L71.926,90.167z M69.735,89.883c0.173-0.696,0.7-1.794,1.046-1.794
					c0.065,0,0.115,0.055,0.115,0.165c0,0.183-0.115,0.476-0.222,0.769c-0.115,0.311-0.189,0.421-0.264,0.458L69.735,89.883z"/>
				<path fill-rule="evenodd" clip-rule="evenodd" d="M74.43,92.061c0.387-1.153,0.898-2.984,1.573-2.984
					c0.214,0,0.396,0.083,0.568,0.156l0.42-1.236c-0.148-0.091-0.305-0.238-0.536-0.238c-0.675,0-1.351,1.647-1.672,2.489
					l-0.017-0.018c0.14-0.577,0.321-1.345,0.321-2.471l-2.306,0.476l0.058,0.183l0.897,0.091c-0.008,0.732-0.263,2.142-0.609,3.441
					L74.43,92.061z"/>
				<path fill-rule="evenodd" clip-rule="evenodd" fill="#A5382E" d="M80.563,89.488c0,1.466,1.195,2.639,2.653,2.639
					c1.451,0,2.638-1.188,2.638-2.639s-1.187-2.631-2.638-2.631C81.757,86.857,80.563,88.022,80.563,89.488z"/>
				<path fill-rule="evenodd" clip-rule="evenodd" d="M90.813,92.152c1.047,0,1.977-0.421,1.977-1.858
					c0-1.117-0.754-1.254-1.23-1.373v-0.019c0.637-0.073,1.464-0.284,1.464-1.519c0-0.934-0.732-1.217-1.552-1.217
					c-0.937,0-1.771,0.32-1.771,1.538c0,0.888,0.593,1.071,0.974,1.171v0.019c-0.6,0.018-1.669,0.292-1.669,1.775
					C89.004,91.814,89.839,92.152,90.813,92.152z M90.278,90.999c0-1.125,0.439-1.94,0.805-1.94c0.249,0,0.432,0.146,0.432,0.787
					c0,0.97-0.322,1.977-0.798,1.977C90.483,91.823,90.278,91.658,90.278,90.999z M91.808,87.037c0,0.869-0.249,1.72-0.637,1.72
					c-0.271,0-0.315-0.274-0.315-0.595c0-0.65,0.249-1.666,0.659-1.666C91.691,86.497,91.808,86.615,91.808,87.037z"/>
				<path fill-rule="evenodd" clip-rule="evenodd" d="M93.53,92.024h3.646l0.381-2.379h-0.205l-0.293,0.732
					c-0.11,0.274-0.234,0.421-0.63,0.421h-2.086v-0.019l0.981-0.668c0.827-0.576,2.27-1.629,2.27-2.709
					c0-0.988-0.856-1.235-1.552-1.235c-0.696,0-1.077,0.156-1.633,0.339l-0.168,1.327h0.308l0.278-0.54
					c0.227-0.449,0.469-0.76,0.82-0.76c0.322,0,0.586,0.293,0.586,0.851c0,0.961-0.923,2.078-1.538,2.7L93.691,91.1L93.53,92.024z"
					/>
				<path fill-rule="evenodd" clip-rule="evenodd" d="M100.136,92.152c1.757,0,2.357-2.398,2.357-4.191
					c0-1.089-0.563-1.794-1.515-1.794c-1.97,0-2.424,2.755-2.424,4.073C98.555,91.695,99.258,92.152,100.136,92.152z M99.689,91.182
					c0-0.714,0.579-4.686,1.347-4.686c0.176,0,0.322,0.155,0.322,0.549c0,0.851-0.578,4.777-1.347,4.777
					C99.799,91.823,99.689,91.64,99.689,91.182z"/>
				<path fill-rule="evenodd" clip-rule="evenodd" d="M104.875,92.152c1.757,0,2.357-2.398,2.357-4.191
					c0-1.089-0.563-1.794-1.516-1.794c-1.969,0-2.423,2.755-2.423,4.073C103.293,91.695,103.997,92.152,104.875,92.152z
					 M104.428,91.182c0-0.714,0.579-4.686,1.347-4.686c0.176,0,0.322,0.155,0.322,0.549c0,0.851-0.578,4.777-1.347,4.777
					C104.538,91.823,104.428,91.64,104.428,91.182z"/>
				<polygon fill-rule="evenodd" clip-rule="evenodd" points="112.265,92.024 112.851,92.024 114.396,88.574 114.411,88.574 
					114.608,92.024 115.194,92.024 117.705,86.716 118.298,86.497 118.335,86.295 116.446,86.295 116.409,86.497 117.222,86.716 
					115.838,90.185 115.824,90.185 115.582,86.295 115.069,86.295 113.466,90.167 113.451,90.167 113.217,86.716 113.993,86.497 
					114.03,86.295 111.27,86.295 111.233,86.497 111.899,86.716 				"/>
				<path fill-rule="evenodd" clip-rule="evenodd" d="M120.396,87.119c0.22,0,0.41-0.238,0.41-0.641
					c0-0.256-0.146-0.512-0.359-0.512c-0.249,0-0.417,0.32-0.417,0.613C120.029,86.945,120.205,87.119,120.396,87.119z
					 M121.838,87.119c0.22,0,0.41-0.238,0.41-0.641c0-0.256-0.146-0.512-0.359-0.512c-0.249,0-0.417,0.32-0.417,0.613
					C121.472,86.945,121.647,87.119,121.838,87.119z M123.031,91.42l-0.037-0.183l-0.805,0.109
					c-0.015-0.155-0.022-0.292-0.022-0.412c0-0.338,0.292-2.151,0.52-2.974l-1.083-0.11c-0.22,0.933-1.113,3.441-1.589,3.441
					c-0.059,0-0.095-0.073-0.095-0.146c0-0.101,0.029-0.238,0.059-0.348c0.168-0.65,0.564-1.693,0.564-3.039l-2.102,0.476
					l0.051,0.183l0.85,0.091c-0.073,0.623-0.337,1.483-0.505,2.124c-0.073,0.274-0.146,0.604-0.146,0.933
					c0,0.293,0.227,0.586,0.601,0.586c1.032,0,1.647-1.812,1.969-2.672l0.015,0.019c-0.117,0.641-0.241,1.537-0.241,1.766
					c0,0.311,0.058,0.586,0.131,0.888L123.031,91.42z"/>
				<path fill-rule="evenodd" clip-rule="evenodd" d="M124.915,92.061c0.242-0.97,1.01-3.441,1.582-3.441
					c0.066,0,0.103,0.073,0.103,0.146c0,0.119-0.029,0.229-0.059,0.348c-0.22,0.769-0.461,1.5-0.461,1.967
					c0,0.357,0.015,0.696,0.264,1.071l1.816-0.732l-0.037-0.183l-0.813,0.109c-0.021-0.146-0.029-0.265-0.029-0.384
					c0-0.146,0.073-0.467,0.212-0.97l0.19-0.714c0.081-0.311,0.146-0.604,0.146-0.934s-0.212-0.586-0.645-0.586
					c-1.032,0-1.669,1.757-2.006,2.618l-0.015-0.019c0.22-0.869,0.337-1.437,0.337-2.599l-2.028,0.476l0.051,0.183l0.776,0.091
					c0,0.732-0.242,2.142-0.542,3.441L124.915,92.061z"/>
				<path fill-rule="evenodd" clip-rule="evenodd" d="M130.673,89.178c-0.396-0.256-0.483-0.394-0.483-0.613
					c0-0.238,0.168-0.476,0.52-0.476c0.703,0,0.681,0.613,0.776,1.382l0.315-0.137l0.168-1.235
					c-0.417-0.192-0.842-0.339-1.274-0.339c-1.091,0-1.501,0.778-1.501,1.446c0,0.622,0.33,0.888,0.761,1.208l0.579,0.439
					c0.154,0.119,0.241,0.238,0.241,0.449c0,0.256-0.153,0.521-0.556,0.521c-0.856,0-0.827-0.649-0.908-1.748l-0.33,0.092
					l-0.242,1.455c0.535,0.32,0.915,0.531,1.604,0.531c0.761,0,1.501-0.43,1.501-1.418c0-0.623-0.315-0.988-0.615-1.19
					L130.673,89.178z"/>
				<path fill-rule="evenodd" clip-rule="evenodd" d="M135.969,90.167h-0.336c-0.212,0.613-0.703,1.583-1.34,1.583
					c-0.256,0-0.432-0.219-0.432-0.668c0-1.291,0.703-2.993,1.047-2.993c0.066,0,0.117,0.046,0.117,0.183
					c0,0.229-0.176,0.723-0.286,1.062l1.325-0.43c0.059-0.201,0.117-0.402,0.117-0.595c0-0.485-0.344-0.549-1.062-0.549
					c-1.706,0-2.533,1.418-2.533,3.093c0,1.089,0.534,1.3,1.237,1.3c0.893,0,1.501-0.421,1.793-0.604L135.969,90.167z"/>
				<path fill-rule="evenodd" clip-rule="evenodd" d="M136.862,91.969l1.157,0.092c0.095-0.357,1.025-3.441,1.596-3.441
					c0.066,0,0.103,0.073,0.103,0.146c0,0.119-0.03,0.229-0.059,0.348c-0.22,0.769-0.461,1.5-0.461,1.967
					c0,0.357,0.015,0.659,0.264,1.071l1.816-0.732l-0.037-0.183l-0.813,0.109c-0.022-0.137-0.029-0.265-0.029-0.384
					c0-0.137,0.059-0.393,0.212-0.97l0.19-0.714c0.081-0.302,0.146-0.604,0.146-0.934c0-0.293-0.212-0.586-0.645-0.586
					c-1.003,0-1.706,1.922-2.006,2.636l-0.015-0.018l0.878-4.851l-2.306,0.384l0.051,0.183l0.974,0.11L136.862,91.969z"/>
				<path fill-rule="evenodd" clip-rule="evenodd" d="M145.306,90.167h-0.3c-0.095,0.265-0.644,1.583-1.347,1.583
					c-0.308,0-0.446-0.174-0.446-0.686c0-0.421,0.095-0.833,0.103-0.961l2.145-1.125c0.029-0.201,0.088-0.421,0.088-0.641
					c0-0.512-0.447-0.577-1.098-0.577c-1.691,0-2.511,1.391-2.511,3.121c0,0.915,0.439,1.272,1.251,1.272
					c0.674,0,1.194-0.311,1.75-0.595L145.306,90.167z M143.358,89.883c0.153-0.696,0.622-1.794,0.93-1.794
					c0.059,0,0.103,0.055,0.103,0.165c0,0.183-0.103,0.476-0.198,0.769c-0.103,0.311-0.168,0.421-0.234,0.458L143.358,89.883z"/>
				<path fill-rule="evenodd" clip-rule="evenodd" d="M147.517,92.061c0.241-0.97,1.01-3.441,1.582-3.441
					c0.065,0,0.102,0.073,0.102,0.146c0,0.119-0.029,0.229-0.059,0.348c-0.219,0.769-0.461,1.5-0.461,1.967
					c0,0.357,0.015,0.696,0.263,1.071l1.816-0.732l-0.037-0.183l-0.813,0.109c-0.022-0.146-0.029-0.265-0.029-0.384
					c0-0.146,0.073-0.467,0.212-0.97l0.19-0.714c0.08-0.311,0.146-0.604,0.146-0.934s-0.212-0.586-0.644-0.586
					c-1.032,0-1.669,1.757-2.006,2.618l-0.015-0.019c0.22-0.869,0.337-1.437,0.337-2.599l-2.028,0.476l0.051,0.183l0.776,0.091
					c0,0.732-0.242,2.142-0.542,3.441L147.517,92.061z"/>
				<path fill-rule="evenodd" clip-rule="evenodd" d="M152.63,91.054c0-0.623,0.703-2.837,1.34-2.837
					c0.124,0,0.256,0.073,0.358,0.156c-0.139,0.54-0.871,2.956-1.494,2.956C152.696,91.329,152.63,91.228,152.63,91.054z
					 M156.006,91.42l-0.037-0.183l-0.791,0.109c-0.037-0.155-0.044-0.283-0.044-0.412c0-0.137,0.051-0.631,0.117-0.979l0.761-4.43
					l-2.357,0.384l0.051,0.183l0.974,0.11l-0.315,1.839c-0.161-0.073-0.483-0.284-0.922-0.284c-1.267,0-2.028,2.078-2.028,3.304
					c0,0.769,0.315,1.089,0.828,1.089c1.01,0,1.589-1.684,1.896-2.435l0.015,0.019c-0.117,0.759-0.19,1.354-0.19,1.675
					c0,0.21,0.059,0.503,0.154,0.741L156.006,91.42z"/>
				<path fill-rule="evenodd" clip-rule="evenodd" d="M158.226,92.152c1.516,0,2.204-1.318,2.204-2.919
					c0-1.062-0.549-1.474-1.567-1.474c-1.515,0-2.218,1.327-2.218,2.929C156.645,91.741,157.194,92.152,158.226,92.152z
					 M157.86,91.274c0-0.796,0.469-3.185,1.047-3.185c0.183,0,0.307,0.137,0.307,0.558c0,0.787-0.454,3.176-1.01,3.176
					C157.999,91.823,157.86,91.686,157.86,91.274z"/>
				<path fill-rule="evenodd" clip-rule="evenodd" d="M162.556,92.061c0.344-1.153,0.798-2.984,1.398-2.984
					c0.19,0,0.352,0.083,0.505,0.156l0.373-1.236c-0.132-0.091-0.271-0.238-0.476-0.238c-0.601,0-1.201,1.647-1.486,2.489
					l-0.015-0.018c0.125-0.577,0.286-1.345,0.286-2.471l-2.05,0.476l0.051,0.183l0.798,0.091c-0.008,0.732-0.234,2.142-0.542,3.441
					L162.556,92.061z"/>
				<path fill-rule="evenodd" clip-rule="evenodd" d="M164.373,94.001c0.674,0,0.835-0.293,1.56-1.208
					c0.659-0.86,0.784-1.309,0.879-2.215l0.212-2.086h0.974l0.073-0.403h-1.018c0.037-0.75,0.175-2.123,0.805-2.123
					c0.491,0,0.483,0.714,0.52,1.189h0.308l0.227-1.235c-0.351-0.128-0.673-0.284-1.091-0.284c-1.662,0-1.816,1.739-1.948,2.453
					l-0.717,0.201l-0.029,0.202h0.696l-0.256,3.203c-0.051,0.641-0.081,1.254-0.417,1.254c-0.139,0-0.366-0.165-0.534-0.266
					L164.373,94.001z"/>
				<polygon fill-rule="evenodd" clip-rule="evenodd" points="171.067,92.024 174.354,92.024 174.398,91.823 173.417,91.622 
					174.295,86.167 171.726,86.798 171.689,86.991 172.809,87.101 172.084,91.622 171.104,91.823 				"/>
			</g>
		</g>
	</g>
	<g>
		<path fill-rule="evenodd" clip-rule="evenodd" d="M23.123,112.112h-0.219c-0.338,0.677-1.016,1.584-1.833,1.584
			c-0.488,0-0.737-0.468-0.737-0.976c0-0.25,0.03-0.538,0.07-0.787l2.859-1.315c0.06-0.179,0.129-0.448,0.129-0.697
			c0-0.548-0.548-0.648-0.966-0.648c-2.022,0-3.049,1.684-3.049,3.328c0,0.957,0.428,1.455,1.295,1.455
			c0.788,0,1.614-0.429,2.063-0.658L23.123,112.112z M20.443,111.653c0.219-0.927,0.877-2.063,1.664-2.063
			c0.488,0,0.548,0.299,0.548,0.448c0,0.449-0.438,0.708-1.036,1.017L20.443,111.653z"/>
		<polygon fill-rule="evenodd" clip-rule="evenodd" points="24.382,112.032 26.713,112.032 26.863,111.295 24.531,111.295 		"/>
		<path fill-rule="evenodd" clip-rule="evenodd" d="M28.947,114.015c0.438-1.753,1.753-4.185,2.541-4.185
			c0.189,0,0.239,0.169,0.239,0.349c0,0.508-0.608,2.999-0.847,3.736l0.797,0.1c0.658-2.042,1.943-4.185,2.69-4.185
			c0.199,0,0.239,0.12,0.239,0.349c0,0.14-0.07,0.389-0.209,0.847l-0.319,1.066c-0.06,0.209-0.149,0.658-0.149,0.847
			c0,0.339,0.06,0.708,0.299,1.116l1.724-0.897l-0.05-0.159l-0.996,0.299c-0.05-0.129-0.06-0.289-0.06-0.398
			c0-0.189,0.05-0.468,0.169-0.867l0.299-0.997c0.11-0.358,0.209-0.817,0.209-0.976c0-0.489-0.259-0.788-0.728-0.788
			c-1.136,0-2.023,1.674-2.521,2.71l-0.02-0.02c0.279-1.126,0.389-1.744,0.389-1.973c0-0.488-0.199-0.718-0.638-0.718
			c-1.206,0-2.022,1.674-2.561,2.71l-0.02-0.02c0.319-1.096,0.379-2.152,0.379-2.69l-2.013,0.498l0.05,0.16l1.046,0.04
			c0,0.856-0.398,2.69-0.737,3.945L28.947,114.015z"/>
		<path fill-rule="evenodd" clip-rule="evenodd" d="M42.468,113.158l-0.05-0.159l-1.066,0.299c-0.02-0.199-0.06-0.498-0.06-0.737
			c0-0.887,0.479-2.411,0.987-3.447l-1.166,0.578c-0.339-0.179-0.688-0.418-1.206-0.418c-1.574,0-2.79,2.67-2.79,3.657
			c0,0.658,0.289,1.126,0.957,1.126c1.156,0,2.202-1.614,2.68-2.919l0.02,0.02c-0.169,0.498-0.338,1.365-0.338,1.773
			c0,0.468,0.04,0.728,0.229,1.126L42.468,113.158z M38.074,112.879c0-0.847,0.957-3.288,2.092-3.288
			c0.449,0,0.678,0.339,0.797,0.499c-0.479,1.524-1.604,3.407-2.451,3.407C38.224,113.497,38.074,113.268,38.074,112.879z"/>
		<path fill-rule="evenodd" clip-rule="evenodd" d="M45.957,113.158l-0.05-0.159l-1.066,0.299c-0.05-0.189-0.06-0.369-0.06-0.498
			c0-1.017,0.737-2.361,0.737-3.527l-2.182,0.498l0.05,0.16l1.116,0.04c0,0.667-0.638,1.853-0.638,2.909
			c0,0.429,0.07,0.718,0.289,1.176L45.957,113.158z M45.419,108.096c0.329,0,0.558-0.309,0.558-0.647
			c0-0.329-0.169-0.488-0.458-0.488c-0.329,0-0.558,0.309-0.558,0.647C44.96,107.937,45.129,108.096,45.419,108.096z"/>
		<path fill-rule="evenodd" clip-rule="evenodd" d="M49.616,113.158l-0.07-0.159l-1.096,0.299c-0.02-0.169-0.03-0.319-0.03-0.428
			c0-0.329,0.12-1.076,0.339-2.162l0.787-3.866l-2.421,0.498l0.06,0.16l1.345,0.04l-0.648,3.039
			c-0.179,0.847-0.378,1.874-0.378,2.352c0,0.189,0.01,0.628,0.169,1.126L49.616,113.158z"/>
		<path fill-rule="evenodd" clip-rule="evenodd" d="M51.382,114.055c0.358,0,0.598-0.309,0.598-0.678
			c0-0.358-0.229-0.578-0.538-0.578c-0.358,0-0.598,0.309-0.598,0.667C50.844,113.835,51.073,114.055,51.382,114.055z
			 M51.93,111.185c0.359,0,0.598-0.309,0.598-0.677c0-0.359-0.229-0.578-0.538-0.578c-0.358,0-0.598,0.309-0.598,0.667
			C51.392,110.966,51.621,111.185,51.93,111.185z"/>
		<path fill-rule="evenodd" clip-rule="evenodd" d="M56.548,113.915h2.631l0.04-0.159l-1.156-0.239l1.146-2.152h1.993l0.428,2.152
			l-1.155,0.239l-0.04,0.159h3.069l0.04-0.159l-0.896-0.239l-1.255-5.979h-0.359l-3.567,5.979l-0.877,0.239L56.548,113.915z
			 M60.664,108.654h0.02l0.458,2.392h-1.754L60.664,108.654z"/>
		<path fill-rule="evenodd" clip-rule="evenodd" d="M66.026,114.015c0.558-2.002,1.764-4.185,2.611-4.185
			c0.279,0,0.339,0.12,0.339,0.349c0,0.14-0.07,0.389-0.209,0.847l-0.319,1.066c-0.06,0.209-0.149,0.658-0.149,0.847
			c0,0.339,0.06,0.708,0.299,1.116l1.684-0.897l-0.05-0.159l-0.957,0.299c-0.05-0.129-0.06-0.289-0.06-0.398
			c0-0.189,0.05-0.468,0.169-0.867l0.299-0.997c0.109-0.358,0.209-0.817,0.209-0.976c0-0.489-0.289-0.788-0.827-0.788
			c-1.206,0-2.072,1.774-2.61,2.91l-0.02-0.02c0.418-1.186,0.448-2.341,0.448-2.89l-1.933,0.498l0.05,0.16l0.966,0.04
			c0,0.856-0.398,2.69-0.737,3.945L66.026,114.015z"/>
		<path fill-rule="evenodd" clip-rule="evenodd" d="M73.988,113.158l-0.05-0.159l-1.086,0.299c-0.01-0.14-0.03-0.378-0.03-0.528
			c0-0.259,0.11-0.807,0.229-1.375l0.309-1.465h1.226l0.08-0.359H73.44l0.318-1.435H73.42l-0.787,1.435l-0.986,0.199l-0.06,0.16
			h0.847l-0.299,1.465c-0.159,0.787-0.229,1.265-0.229,1.554c0,0.548,0.08,0.807,0.179,1.106L73.988,113.158z"/>
		<path fill-rule="evenodd" clip-rule="evenodd" d="M77.009,114.055c1.724,0,2.64-1.744,2.64-3.159c0-1.006-0.677-1.624-1.823-1.624
			c-1.724,0-2.641,1.744-2.641,3.159C75.185,113.437,75.863,114.055,77.009,114.055z M76.142,112.799
			c0-0.777,0.587-3.249,1.773-3.249c0.578,0,0.777,0.419,0.777,0.977c0,0.777-0.588,3.248-1.773,3.248
			C76.341,113.775,76.142,113.357,76.142,112.799z"/>
		<path fill-rule="evenodd" clip-rule="evenodd" d="M82.04,114.015c0.558-2.002,1.764-4.185,2.611-4.185
			c0.279,0,0.339,0.12,0.339,0.349c0,0.14-0.07,0.389-0.209,0.847l-0.319,1.066c-0.06,0.209-0.149,0.658-0.149,0.847
			c0,0.339,0.06,0.708,0.299,1.116l1.684-0.897l-0.05-0.159l-0.957,0.299c-0.05-0.129-0.06-0.289-0.06-0.398
			c0-0.189,0.05-0.468,0.169-0.867l0.299-0.997c0.11-0.358,0.209-0.817,0.209-0.976c0-0.489-0.289-0.788-0.827-0.788
			c-1.206,0-2.072,1.774-2.61,2.91l-0.02-0.02c0.418-1.186,0.448-2.341,0.448-2.89l-1.933,0.498l0.05,0.16l0.966,0.04
			c0,0.856-0.398,2.69-0.737,3.945L82.04,114.015z"/>
		<polygon fill-rule="evenodd" clip-rule="evenodd" points="87.063,113.915 90.072,113.915 90.112,113.756 89.215,113.517 
			89.713,111.076 90.292,110.627 92.145,113.915 93.938,113.915 93.978,113.756 92.981,113.517 91.029,110.069 93.659,108.076 
			94.596,107.837 94.636,107.678 92.065,107.678 92.025,107.837 92.922,108.076 89.793,110.757 89.773,110.737 90.331,108.076 
			91.328,107.837 91.367,107.678 88.358,107.678 88.318,107.837 89.315,108.076 88.199,113.517 87.103,113.756 		"/>
		<path fill-rule="evenodd" clip-rule="evenodd" d="M99.918,113.158l-0.05-0.159l-1.066,0.299c-0.02-0.199-0.06-0.498-0.06-0.737
			c0-0.887,0.479-2.411,0.986-3.447l-1.166,0.578c-0.339-0.179-0.688-0.418-1.206-0.418c-1.574,0-2.79,2.67-2.79,3.657
			c0,0.658,0.289,1.126,0.957,1.126c1.156,0,2.202-1.614,2.68-2.919l0.02,0.02c-0.169,0.498-0.339,1.365-0.339,1.773
			c0,0.468,0.04,0.728,0.229,1.126L99.918,113.158z M95.524,112.879c0-0.847,0.957-3.288,2.092-3.288
			c0.448,0,0.678,0.339,0.797,0.499c-0.479,1.524-1.604,3.407-2.451,3.407C95.674,113.497,95.524,113.268,95.524,112.879z"/>
		<path fill-rule="evenodd" clip-rule="evenodd" d="M101.802,114.015c0.389-1.365,1.435-3.965,2.352-3.965
			c0.13,0,0.309,0.05,0.499,0.12l0.249-0.698c-0.149-0.089-0.319-0.199-0.488-0.199c-0.867,0-1.754,1.833-2.182,2.91l-0.02-0.02
			c0.418-1.305,0.448-2.341,0.448-2.89l-1.943,0.498l0.03,0.16l0.996,0.04c0,0.856-0.398,2.69-0.737,3.945L101.802,114.015z"/>
		<path fill-rule="evenodd" clip-rule="evenodd" d="M106.727,114.015c0.558-2.002,1.764-4.185,2.61-4.185
			c0.279,0,0.339,0.12,0.339,0.349c0,0.14-0.07,0.389-0.209,0.847l-0.319,1.066c-0.06,0.209-0.149,0.658-0.149,0.847
			c0,0.339,0.06,0.708,0.299,1.116l1.684-0.897l-0.05-0.159l-0.957,0.299c-0.05-0.129-0.06-0.289-0.06-0.398
			c0-0.189,0.05-0.468,0.169-0.867l0.299-0.997c0.109-0.358,0.209-0.817,0.209-0.976c0-0.489-0.289-0.788-0.827-0.788
			c-1.205,0-2.072,1.774-2.61,2.91l-0.02-0.02c0.418-1.186,0.448-2.341,0.448-2.89l-1.933,0.498l0.05,0.16l0.966,0.04
			c0,0.856-0.398,2.69-0.737,3.945L106.727,114.015z"/>
		<path fill-rule="evenodd" clip-rule="evenodd" d="M115.924,112.112h-0.219c-0.338,0.677-1.016,1.584-1.833,1.584
			c-0.488,0-0.737-0.468-0.737-0.976c0-0.25,0.03-0.538,0.07-0.787l2.859-1.315c0.06-0.179,0.129-0.448,0.129-0.697
			c0-0.548-0.548-0.648-0.966-0.648c-2.022,0-3.049,1.684-3.049,3.328c0,0.957,0.428,1.455,1.295,1.455
			c0.788,0,1.614-0.429,2.063-0.658L115.924,112.112z M113.244,111.653c0.219-0.927,0.877-2.063,1.664-2.063
			c0.488,0,0.548,0.299,0.548,0.448c0,0.449-0.438,0.708-1.036,1.017L113.244,111.653z"/>
		<path fill-rule="evenodd" clip-rule="evenodd" d="M118.369,114.015c0.388-1.365,1.435-3.965,2.351-3.965
			c0.13,0,0.309,0.05,0.499,0.12l0.249-0.698c-0.149-0.089-0.319-0.199-0.488-0.199c-0.867,0-1.753,1.833-2.182,2.91l-0.02-0.02
			c0.418-1.305,0.449-2.341,0.449-2.89l-1.943,0.498l0.03,0.16l0.996,0.04c0,0.856-0.398,2.69-0.737,3.945L118.369,114.015z"/>
		<path fill-rule="evenodd" clip-rule="evenodd" d="M128.813,114.503c-0.837,0.518-1.963,1.266-3.438,1.266
			c-1.874,0-2.93-1.146-2.93-2.999c0-2.611,2.152-5.171,5.201-5.171c1.933,0,3.159,1.036,3.159,2.78
			c0,1.833-1.355,2.959-2.441,2.959c-0.05-0.219-0.08-0.479-0.08-0.648c0-1.066,0.538-2.66,0.977-3.567l-1.156,0.578
			c-0.259-0.13-0.708-0.409-1.236-0.409c-1.464,0-2.81,2.372-2.81,3.727c0,0.677,0.398,1.016,0.957,1.016
			c1.375,0,2.282-1.833,2.7-2.77l0.02,0.02c-0.129,0.449-0.309,1.345-0.309,1.793c0,0.379,0.07,0.667,0.199,0.957
			c1.654-0.12,3.498-1.395,3.498-3.676c0-2.013-1.335-3.119-3.597-3.119c-4.025,0-5.878,3.249-5.878,5.51
			c0,1.535,0.787,3.338,3.527,3.338c1.894,0,3.149-0.937,3.796-1.395L128.813,114.503z M124.997,112.899
			c0-0.757,0.997-3.248,2.172-3.248c0.409,0,0.648,0.279,0.777,0.409c-0.478,1.574-1.514,3.417-2.471,3.417
			C125.207,113.477,124.997,113.278,124.997,112.899z"/>
		<path fill-rule="evenodd" clip-rule="evenodd" d="M136.498,110.06l0.07-0.499l-1.096,0.14c-0.299-0.219-0.618-0.429-1.285-0.429
			c-1.405,0-2.103,0.957-2.103,1.913c0,0.498,0.219,0.897,0.658,1.086c-0.468,0.469-0.698,0.678-1.017,1.206
			c0.289,0.499,0.728,0.608,1.485,0.608c0.369,0,0.618-0.03,0.837-0.03c0.418,0,0.837,0.109,0.837,0.568
			c0,0.608-0.757,1.166-1.674,1.166c-0.698,0-1.246-0.369-1.246-0.857c0-0.379,0.259-0.558,0.508-0.698l-0.089-0.159l-1.126,0.378
			c-0.05,0.16-0.09,0.329-0.09,0.458c0,0.837,1.106,1.156,1.923,1.156c1.534,0,2.59-0.877,2.59-1.813
			c0-0.717-0.438-0.976-1.295-0.976c-0.338,0-0.707,0.03-0.956,0.03c-0.468,0-0.917-0.04-1.046-0.239
			c0.169-0.279,0.319-0.508,0.558-0.737c0.209,0.05,0.488,0.08,0.757,0.08c1.435,0,2.043-0.986,2.043-1.893
			c0-0.12-0.02-0.319-0.06-0.458H136.498z M133,111.424c0-0.717,0.418-1.874,1.186-1.874c0.468,0,0.637,0.339,0.637,0.748
			c0,0.797-0.398,1.833-1.175,1.833C133.249,112.132,133,111.952,133,111.424z"/>
		<path fill-rule="evenodd" clip-rule="evenodd" d="M138.323,114.015c0.438-1.753,1.753-4.185,2.541-4.185
			c0.189,0,0.239,0.169,0.239,0.349c0,0.508-0.608,2.999-0.847,3.736l0.797,0.1c0.658-2.042,1.943-4.185,2.69-4.185
			c0.199,0,0.239,0.12,0.239,0.349c0,0.14-0.07,0.389-0.209,0.847l-0.319,1.066c-0.06,0.209-0.149,0.658-0.149,0.847
			c0,0.339,0.06,0.708,0.299,1.116l1.724-0.897l-0.05-0.159l-0.997,0.299c-0.05-0.129-0.06-0.289-0.06-0.398
			c0-0.189,0.05-0.468,0.169-0.867l0.299-0.997c0.11-0.358,0.209-0.817,0.209-0.976c0-0.489-0.259-0.788-0.728-0.788
			c-1.136,0-2.022,1.674-2.521,2.71l-0.02-0.02c0.279-1.126,0.389-1.744,0.389-1.973c0-0.488-0.199-0.718-0.638-0.718
			c-1.206,0-2.022,1.674-2.561,2.71l-0.02-0.02c0.319-1.096,0.378-2.152,0.378-2.69l-2.012,0.498l0.05,0.16l1.046,0.04
			c0,0.856-0.398,2.69-0.737,3.945L138.323,114.015z"/>
		<path fill-rule="evenodd" clip-rule="evenodd" d="M146.973,114.055c0.07-0.728,0.179-1.166,0.887-1.754l0.568-0.468l0.169,0.667
			c0.189,0.757,0.319,1.136,0.588,1.554l1.803-0.897l-0.05-0.159l-1.096,0.299c-0.15-0.239-0.289-0.558-0.379-0.927l-0.229-0.926
			l0.917-0.608c0.787-0.518,0.977-0.787,0.977-1.166c0-0.14-0.02-0.259-0.04-0.399l-0.657,0.14c-0.07,0.618-0.249,0.996-0.718,1.365
			l-0.538,0.428l-0.159-0.658c-0.12-0.478-0.309-1.016-0.468-1.275l-1.883,0.498l0.09,0.16l1.136,0.04
			c0.12,0.259,0.189,0.478,0.269,0.787l0.209,0.837l-0.907,0.578c-0.967,0.618-1.186,0.997-1.186,1.664
			c0,0.169,0.02,0.339,0.04,0.478L146.973,114.055z"/>
		<path fill-rule="evenodd" clip-rule="evenodd" d="M152.846,114.055c0.359,0,0.598-0.309,0.598-0.678
			c0-0.358-0.229-0.578-0.538-0.578c-0.358,0-0.598,0.309-0.598,0.667C152.308,113.835,152.537,114.055,152.846,114.055z"/>
		<path fill-rule="evenodd" clip-rule="evenodd" d="M160.679,113.158l-0.05-0.159l-1.066,0.299c-0.02-0.199-0.06-0.498-0.06-0.737
			c0-0.887,0.478-2.411,0.986-3.447l-1.166,0.578c-0.339-0.179-0.688-0.418-1.206-0.418c-1.574,0-2.79,2.67-2.79,3.657
			c0,0.658,0.289,1.126,0.957,1.126c1.156,0,2.202-1.614,2.68-2.919l0.02,0.02c-0.169,0.498-0.338,1.365-0.338,1.773
			c0,0.468,0.04,0.728,0.229,1.126L160.679,113.158z M156.285,112.879c0-0.847,0.956-3.288,2.092-3.288
			c0.448,0,0.677,0.339,0.797,0.499c-0.478,1.524-1.604,3.407-2.451,3.407C156.434,113.497,156.285,113.268,156.285,112.879z"/>
		<path fill-rule="evenodd" clip-rule="evenodd" d="M164.037,113.158l-0.05-0.159l-1.086,0.299c-0.01-0.14-0.03-0.378-0.03-0.528
			c0-0.259,0.109-0.807,0.229-1.375l0.309-1.465h1.226l0.08-0.359h-1.226l0.319-1.435h-0.339l-0.787,1.435l-0.986,0.199l-0.06,0.16
			h0.847l-0.299,1.465c-0.16,0.787-0.229,1.265-0.229,1.554c0,0.548,0.08,0.807,0.18,1.106L164.037,113.158z"/>
	</g>
	<g>
		<path fill-rule="evenodd" clip-rule="evenodd" fill="#A5382E" d="M0,130.513h7.152l0.588-2.832H7.308
			c-0.924,1.764-1.032,2.328-1.884,2.328H3l0.648-3.312l1.584,0.072l0.072,1.224h0.24l0.576-2.904H5.88l-0.54,1.199l-1.632,0.121
			l0.588-2.904h1.872c0.732,0,0.804,0.036,0.984,1.824H7.56L8.052,123H1.488l-0.048,0.24l1.224,0.264l-1.296,6.504l-1.32,0.264
			L0,130.513z"/>
		<path fill-rule="evenodd" clip-rule="evenodd" fill="#A5382E" d="M12.735,129.648l-0.048-0.192l-1.356,0.24
			c-0.036-0.18-0.048-0.372-0.048-0.456c0-0.816,0.864-2.976,0.864-4.32l-2.952,0.6l0.048,0.192l1.416,0.048
			c-0.096,0.6-0.792,2.7-0.792,3.42c0,0.624,0.204,1.044,0.372,1.5L12.735,129.648z M11.835,123.865c0.54,0,0.888-0.468,0.888-1.032
			c0-0.468-0.36-0.84-0.756-0.84c-0.444,0-0.924,0.36-0.924,0.996C11.043,123.517,11.403,123.865,11.835,123.865z"/>
		<path fill-rule="evenodd" clip-rule="evenodd" fill="#A5382E" d="M14.275,132.552l1.464-1.296c0.372-0.336,0.684-0.528,0.684-0.96
			c0-0.804-0.12-1.176-0.204-1.584l-1.284,0.276c0.024,0.144,0.048,0.288,0.048,0.432c0,1.032-0.372,1.824-0.96,3.06L14.275,132.552
			z"/>
		<path fill-rule="evenodd" clip-rule="evenodd" fill="#A5382E" d="M25.931,127.668c0.324-1.176,0.936-2.364,1.884-2.364
			c0.24,0,0.36,0.18,0.36,0.373c0,0.54-0.264,1.02-0.708,1.236L25.931,127.668z M29.075,128.161h-0.432
			c-0.36,0.672-1.127,2.016-2.208,2.016c-0.468,0-0.768-0.252-0.768-0.852c0-0.264,0.084-0.744,0.204-1.308l3.408-1.488
			c0.072-0.24,0.168-0.564,0.168-0.852c0-0.588-0.612-0.756-1.692-0.756c-2.856,0-3.696,2.772-3.696,4.032
			c0,1.26,0.864,1.728,1.776,1.728c1.08,0,1.944-0.444,2.676-0.78L29.075,128.161z"/>
		<path fill-rule="evenodd" clip-rule="evenodd" fill="#A5382E" d="M34.323,129.648l-0.048-0.192l-1.356,0.24
			c-0.036-0.18-0.048-0.372-0.048-0.456c0-0.816,0.864-2.976,0.864-4.32l-2.952,0.6l0.048,0.192l1.416,0.048
			c-0.096,0.6-0.792,2.7-0.792,3.42c0,0.624,0.204,1.044,0.372,1.5L34.323,129.648z M33.423,123.865c0.54,0,0.888-0.468,0.888-1.032
			c0-0.468-0.36-0.84-0.756-0.84c-0.444,0-0.924,0.36-0.924,0.996C32.631,123.517,32.991,123.865,33.423,123.865z"/>
		<path fill-rule="evenodd" clip-rule="evenodd" fill="#A5382E" d="M47.577,129.648l-0.048-0.192l-1.32,0.24
			c-0.024-0.18-0.048-0.372-0.048-0.456c0-0.888,0.192-1.8,0.372-2.664l0.984-4.584l-3.324,0.6l0.048,0.216l1.62,0.048l-0.468,2.448
			c-0.324-0.132-0.924-0.384-1.368-0.384c-2.292,0-3.42,3.012-3.42,4.404c0,0.696,0.384,1.356,1.308,1.356
			c1.548,0,2.508-1.98,3.06-3.144l0.024,0.024c-0.096,0.588-0.252,1.212-0.252,1.836c0,0.66,0.132,0.888,0.252,1.284L47.577,129.648
			z M42.141,129.385c0-0.744,1.056-3.96,2.34-3.96c0.3,0,0.636,0.228,0.804,0.444c-0.276,1.104-1.476,3.888-2.772,4.02
			C42.285,129.889,42.141,129.696,42.141,129.385z"/>
		<path fill-rule="evenodd" clip-rule="evenodd" fill="#A5382E" d="M55.764,129.648l-0.048-0.192l-1.416,0.24
			c-0.036-0.276-0.048-0.564-0.048-0.696c0-0.348,0.192-1.992,1.188-4.2l-1.667,0.612c-0.504-0.276-1.032-0.492-1.608-0.492
			c-1.8,0-3.444,2.928-3.444,4.404c0,0.696,0.288,1.356,1.188,1.356c1.704,0,2.592-1.932,3.3-3.324l0.024,0.024
			c-0.192,0.708-0.396,1.74-0.396,2.1c0,0.516,0.108,0.84,0.252,1.2L55.764,129.648z M50.256,129.385c0-0.744,1.14-3.96,2.46-3.96
			c0.324,0,0.528,0.228,0.72,0.444c-0.3,0.876-1.476,4.02-2.736,4.02C50.364,129.889,50.256,129.696,50.256,129.385z"/>
		<path fill-rule="evenodd" clip-rule="evenodd" fill="#A5382E" d="M67.805,125.785l0.096-0.696l-1.439,0.24
			c-0.3-0.192-0.672-0.408-1.572-0.408c-1.296,0-2.748,0.54-2.748,2.304c0,0.576,0.264,1.068,0.816,1.332
			c-0.552,0.54-0.78,0.84-1.188,1.476c0.192,0.396,0.384,0.612,0.768,0.816l-1.38,0.564c-0.036,0.144-0.048,0.336-0.048,0.42
			c0,0.888,0.984,1.272,2.436,1.272c2.124,0,3.396-1.032,3.396-2.34c0-0.66-0.396-1.188-1.392-1.188
			c-0.576,0-1.152,0.048-1.728,0.048c-0.396,0-0.804-0.048-1.164-0.216c0.144-0.252,0.384-0.528,0.612-0.732
			c0.336,0.036,0.672,0.072,0.996,0.072c1.836,0,2.628-1.128,2.628-2.352c0-0.204-0.06-0.408-0.12-0.612H67.805z M62.429,131.785
			c0-0.396,0.276-0.648,0.528-0.864c0.204,0.012,0.42,0.048,0.624,0.048c0.396,0,0.78-0.048,1.176-0.048
			c0.492,0,0.984,0,0.984,0.528c0,0.66-0.768,1.224-1.8,1.224C63.173,132.672,62.429,132.385,62.429,131.785z M63.581,127.608
			c0-0.636,0.324-2.304,1.224-2.304c0.48,0,0.648,0.3,0.648,0.792c0,0.612-0.3,2.268-1.2,2.268
			C63.833,128.365,63.581,128.112,63.581,127.608z"/>
		<path fill-rule="evenodd" clip-rule="evenodd" fill="#A5382E" d="M72.395,129.648l-0.048-0.192l-1.356,0.24
			c-0.036-0.18-0.048-0.372-0.048-0.456c0-0.816,0.864-2.976,0.864-4.32l-2.952,0.6l0.048,0.192l1.416,0.048
			c-0.096,0.6-0.792,2.7-0.792,3.42c0,0.624,0.204,1.044,0.372,1.5L72.395,129.648z M71.495,123.865c0.54,0,0.888-0.468,0.888-1.032
			c0-0.468-0.36-0.84-0.756-0.84c-0.444,0-0.924,0.36-0.924,0.996C70.703,123.517,71.063,123.865,71.495,123.865z"/>
		<path fill-rule="evenodd" clip-rule="evenodd" fill="#A5382E" d="M73.635,130.825l1.488-0.672
			c0.468,0.336,1.043,0.528,1.596,0.528c2.172,0,3.42-3.012,3.42-4.404c0-0.696-0.384-1.356-1.308-1.356
			c-1.416,0-2.376,1.716-2.928,2.724l-0.024-0.024l1.296-5.628l-3.324,0.6l0.048,0.216l1.62,0.048L73.635,130.825z M75.363,129.637
			c0.6-1.392,1.62-3.924,2.868-3.924c0.229,0,0.372,0.192,0.372,0.504c0,0.768-1.104,3.96-2.46,3.96
			C75.783,130.177,75.531,129.876,75.363,129.637z"/>
		<path fill-rule="evenodd" clip-rule="evenodd" fill="#A5382E" d="M85.194,129.648l-0.048-0.192l-1.32,0.24
			c-0.036-0.18-0.048-0.372-0.048-0.456c0-0.396,0.084-1.02,0.204-1.548l0.396-1.86h1.572l0.108-0.48h-1.584l0.372-1.74h-0.432
			l-1.14,1.668l-1.404,0.312l-0.072,0.24h1.092l-0.372,1.788c-0.108,0.516-0.228,1.152-0.228,1.56c0,0.768,0.12,1.044,0.252,1.5
			L85.194,129.648z"/>
		<path fill-rule="evenodd" clip-rule="evenodd" fill="#A5382E" d="M87.536,126.672L89,125.376c0.372-0.336,0.684-0.528,0.684-0.96
			c0-0.804-0.12-1.176-0.204-1.584l-1.284,0.276c0.024,0.144,0.048,0.288,0.048,0.432c0,1.032-0.372,1.824-0.96,3.06L87.536,126.672
			z"/>
		<path fill-rule="evenodd" clip-rule="evenodd" fill="#A5382E" d="M95.076,126.865l0.276-1.524c-0.324-0.096-1.032-0.42-2.004-0.42
			c-1.272,0-2.052,0.72-2.052,1.692c0,1.692,2.616,1.812,2.616,2.868c0,0.516-0.456,0.816-1.092,0.816
			c-1.404,0-1.392-1.38-1.416-2.316l-0.444,0.108l-0.42,1.848c0.9,0.444,1.476,0.744,2.532,0.744c1.272,0,2.112-0.816,2.112-1.704
			c0-1.824-2.688-1.8-2.688-2.916c0-0.504,0.396-0.756,0.936-0.756c1.188,0,1.176,1.128,1.212,1.692L95.076,126.865z"/>
		<path fill-rule="evenodd" clip-rule="evenodd" fill="#A5382E" d="M103.625,130.573c0.624-2.028,1.98-4.86,2.952-4.86
			c0.229,0,0.288,0.192,0.288,0.324c0,0.576-0.816,2.28-0.816,3.144c0,0.756,0.192,1.08,0.372,1.5l2.532-1.032l-0.048-0.192
			l-1.392,0.24c-0.036-0.156-0.048-0.312-0.048-0.456c0-0.744,0.888-2.628,0.888-3.492c0-0.48-0.336-0.828-0.948-0.828
			c-1.656,0-2.508,1.932-3.192,3.18l-0.024-0.024c0.24-0.888,0.408-1.775,0.408-3.156l-2.832,0.6l0.048,0.192l1.296,0.048
			c0,1.08-0.54,3.42-0.864,4.692L103.625,130.573z"/>
		<path fill-rule="evenodd" clip-rule="evenodd" fill="#A5382E" d="M112.81,130.681c2.436,0,3.408-2.016,3.408-3.792
			c0-1.428-0.912-1.968-2.256-1.968c-2.436,0-3.408,2.016-3.408,3.792C110.554,130.141,111.466,130.681,112.81,130.681z
			 M112.042,129.313c0-0.936,0.66-4.008,1.92-4.008c0.468,0,0.768,0.288,0.768,0.984c0,0.936-0.66,4.008-1.92,4.008
			C112.342,130.296,112.042,130.008,112.042,129.313z"/>
		<path fill-rule="evenodd" clip-rule="evenodd" fill="#A5382E" d="M122.917,128.208h-0.432c-0.42,0.732-1.116,1.968-2.244,1.968
			c-0.468,0-0.72-0.324-0.72-1.08c0-0.888,0.78-3.792,2.04-3.792c0.384,0,0.504,0.229,0.504,0.516c0,0.312-0.156,0.636-0.216,0.804
			h0.144l1.044-0.276c0.3-0.072,0.3-0.528,0.3-0.756c0-0.588-0.756-0.672-1.62-0.672c-2.964,0-3.804,2.592-3.804,3.792
			c0,1.596,0.792,1.968,1.86,1.968c0.768,0,1.98-0.492,2.604-0.768L122.917,128.208z"/>
		<path fill-rule="evenodd" clip-rule="evenodd" fill="#A5382E" d="M124.877,130.453l1.38,0.12c0.48-1.584,1.836-4.86,2.952-4.86
			c0.276,0,0.36,0.144,0.36,0.372c0,0.48-0.828,2.412-0.828,3.096c0,0.768,0.18,1.044,0.372,1.5l2.532-1.032l-0.048-0.192
			l-1.392,0.24c-0.036-0.18-0.048-0.372-0.048-0.456c0-0.78,0.9-2.604,0.9-3.456c0-0.48-0.36-0.864-0.936-0.864
			c-1.692,0-2.472,1.836-3.312,3.312l-0.024-0.024l1.356-6.216l-3.384,0.541l0.048,0.216l1.62,0.048L124.877,130.453z"/>
		<path fill-rule="evenodd" clip-rule="evenodd" fill="#A5382E" d="M139.749,130.573c0.6-2.028,1.968-4.86,2.784-4.86
			c0.156,0,0.192,0.192,0.192,0.324c0,0.324-0.648,3.228-0.996,4.416l1.38,0.12c0.528-1.824,2.064-4.86,2.904-4.86
			c0.18,0,0.204,0.192,0.204,0.324c0,0.348-0.84,2.448-0.84,3.144c0,0.768,0.18,1.044,0.372,1.5l2.532-1.032l-0.048-0.192
			l-1.392,0.24c-0.036-0.18-0.048-0.372-0.048-0.456c0-0.732,0.864-2.64,0.864-3.492c0-0.48-0.24-0.828-0.828-0.828
			c-1.548,0-2.316,1.908-3.084,3.18l-0.024-0.024c0.216-0.888,0.444-1.86,0.444-2.328c0-0.48-0.288-0.828-0.804-0.828
			c-1.476,0-2.34,1.932-2.976,3.18l-0.024-0.024c0.192-0.888,0.36-1.775,0.36-3.156l-2.832,0.6l0.048,0.192l1.296,0.048
			c0,1.08-0.54,3.42-0.864,4.692L139.749,130.573z"/>
		<path fill-rule="evenodd" clip-rule="evenodd" fill="#A5382E" d="M151.583,127.668c0.324-1.176,0.936-2.364,1.884-2.364
			c0.24,0,0.36,0.18,0.36,0.373c0,0.54-0.264,1.02-0.708,1.236L151.583,127.668z M154.727,128.161h-0.432
			c-0.36,0.672-1.128,2.016-2.208,2.016c-0.468,0-0.768-0.252-0.768-0.852c0-0.264,0.084-0.744,0.204-1.308l3.408-1.488
			c0.072-0.24,0.168-0.564,0.168-0.852c0-0.588-0.612-0.756-1.692-0.756c-2.856,0-3.696,2.772-3.696,4.032
			c0,1.26,0.864,1.728,1.776,1.728c1.08,0,1.944-0.444,2.676-0.78L154.727,128.161z"/>
		<path fill-rule="evenodd" clip-rule="evenodd" fill="#A5382E" d="M156.686,130.453l1.38,0.12c0.48-1.584,1.836-4.86,2.952-4.86
			c0.276,0,0.36,0.144,0.36,0.372c0,0.48-0.828,2.412-0.828,3.096c0,0.768,0.18,1.044,0.372,1.5l2.532-1.032l-0.048-0.192
			l-1.392,0.24c-0.036-0.18-0.048-0.372-0.048-0.456c0-0.78,0.9-2.604,0.9-3.456c0-0.48-0.36-0.864-0.936-0.864
			c-1.692,0-2.472,1.836-3.312,3.312l-0.024-0.024l1.356-6.216l-3.384,0.541l0.048,0.216l1.62,0.048L156.686,130.453z"/>
		<path fill-rule="evenodd" clip-rule="evenodd" fill="#A5382E" d="M166.528,130.573c0.336-1.056,1.452-4.452,2.556-4.452
			c0.312,0,0.528,0.06,0.792,0.156l0.396-1.08c-0.168-0.12-0.408-0.276-0.612-0.276c-0.984,0-1.8,1.668-2.532,3.024l-0.024-0.024
			c0.168-0.696,0.396-1.572,0.396-3l-2.832,0.6l0.048,0.192l1.296,0.048c0,1.08-0.54,3.42-0.864,4.692L166.528,130.573z"/>
		<path fill-rule="evenodd" clip-rule="evenodd" fill="#A5382E" d="M171.224,130.681c0.552,0,0.924-0.54,0.924-0.972
			c0-0.6-0.324-0.996-0.828-0.996c-0.576,0-0.972,0.528-0.972,1.068C170.348,130.285,170.671,130.681,171.224,130.681z"/>
		<path fill-rule="evenodd" clip-rule="evenodd" fill="#A5382E" d="M176.23,130.681c0.552,0,0.924-0.54,0.924-0.972
			c0-0.6-0.324-0.996-0.828-0.996c-0.576,0-0.972,0.528-0.972,1.068C175.354,130.285,175.678,130.681,176.23,130.681z"/>
		<path fill-rule="evenodd" clip-rule="evenodd" fill="#A5382E" d="M181.236,130.681c0.552,0,0.924-0.54,0.924-0.972
			c0-0.6-0.324-0.996-0.828-0.996c-0.576,0-0.972,0.528-0.972,1.068C180.36,130.285,180.684,130.681,181.236,130.681z"/>
	</g>
	<g>
		<path fill-rule="evenodd" clip-rule="evenodd" fill="#A5382E" d="M43.184,68.955c0.674-0.528,1.311-0.983,1.967-1.366
			l-1.712-1.293c-0.091-0.073-0.237-0.127-0.364-0.127s-0.31,0.073-0.455,0.182c-0.656,0.473-1.493,1.184-2.477,2.148
			c-1.293,1.238-1.694,1.694-2.531,2.859v-2.531c0-1.384,0.109-1.931,0.528-2.659h-3.843c0.419,0.747,0.51,1.256,0.51,2.659v6.829
			c0,1.511-0.073,1.894-0.492,2.659h3.806c-0.419-0.765-0.51-1.184-0.51-2.659v-1.584l0.528-0.583l0.309,0.364
			c1.111,1.293,2.458,2.731,3.351,3.569c0.947,0.892,1.165,1.038,1.547,1.038c0.219,0,0.328-0.036,0.62-0.237l2.058-1.402
			c-0.656-0.237-1.075-0.492-1.748-1.02c-0.528-0.419-1.075-0.892-1.657-1.402c-1.311-1.184-1.657-1.53-2.531-2.531
			C40.944,70.94,42.273,69.683,43.184,68.955z"/>
		<path fill-rule="evenodd" clip-rule="evenodd" fill="#A5382E" d="M63.617,76.822c0,0.655-0.036,0.929-0.237,1.493h3.168
			c0-0.2,0-0.328,0-0.382c0-1.566-0.437-4.279-0.965-6.082c-0.255-0.911-0.619-1.839-1.038-2.768
			c-0.564-1.184-0.838-1.694-1.657-2.914h-3.933h-0.692c-0.328,0-0.528,0-0.619,0c-0.055-0.019-0.146-0.019-0.255-0.037
			c-0.273,0.838-0.601,1.53-1.057,2.331c1.111-0.31,1.73-0.401,2.586-0.401h0.127c-0.91,1.075-1.22,1.457-1.73,2.258
			c-0.492,0.783-0.91,1.603-1.238,2.477c-0.619,1.603-1.001,3.551-1.001,5.081c0,0.091,0,0.237,0.018,0.437h3.023
			c-0.109-0.583-0.127-0.819-0.127-1.293c0-0.911,0.146-1.839,0.401-2.641h4.989C63.544,75.219,63.617,76.021,63.617,76.822z
			 M59.028,72.269c0.31-0.911,0.473-1.256,1.02-2.13s0.765-1.184,1.402-1.894h0.127c0.437,0.765,0.583,1.093,0.893,2.04
			c0.218,0.729,0.309,1.074,0.491,1.985H59.028z"/>
		<path fill-rule="evenodd" clip-rule="evenodd" fill="#A5382E" d="M80.78,73.95c0.328,0,0.474-0.018,0.838-0.073l0.164,0.273
			c0.747,1.42,1.384,2.44,2.276,3.642c0.528,0.71,0.893,1.001,1.275,1.001c0.218,0,0.474-0.073,0.729-0.2l1.948-1.074
			c-0.637-0.346-0.911-0.546-1.256-0.856c-0.765-0.729-1.53-1.73-2.604-3.405c1.111-0.765,1.621-1.767,1.621-3.096
			c0-1.111-0.382-2.04-1.129-2.713c-0.783-0.692-1.621-0.947-3.132-0.947l-1.311,0.018c-0.2,0-0.401,0-0.601,0
			c-1.348,0-1.785,0-2.513-0.073c0.418,0.765,0.528,1.274,0.528,2.659v6.883c0,1.493-0.091,1.894-0.51,2.659h3.77
			c-0.419-0.765-0.492-1.147-0.492-2.659v-2.058C80.58,73.95,80.652,73.95,80.78,73.95z M80.307,68.542
			c0.291-0.055,0.418-0.055,0.619-0.055c1.529,0,2.258,0.546,2.258,1.693c0,1.093-0.819,1.712-2.258,1.712
			c-0.146,0-0.328-0.019-0.619-0.037V68.542z"/>
		<path fill-rule="evenodd" clip-rule="evenodd" fill="#A5382E" d="M97.285,66.169c0.51,0.91,0.638,1.511,0.638,3.041v6.446
			c0,1.511-0.073,1.894-0.492,2.659h3.515c-0.273-0.874-0.346-1.438-0.383-2.841l-0.109-5.827l6.446,8.668h2.276
			c-0.091-0.819-0.127-1.566-0.127-3.096v-6.392c0-1.402,0.109-1.912,0.528-2.659h-3.587c0.346,0.783,0.364,1.001,0.419,2.586
			l0.146,5.608l-6.009-8.194H97.285z"/>
		<path fill-rule="evenodd" clip-rule="evenodd" fill="#A5382E" d="M125.478,70.849h-1.767v-2.495h2.276
			c0.729,0,1.001,0.055,1.42,0.237l-0.109-1.894c-0.018-0.437-0.073-0.528-0.328-0.528h-0.364h-3.697c-0.091,0-0.364,0-0.837,0
			c-0.911-0.019-1.001-0.019-1.621-0.055c0.418,0.819,0.528,1.329,0.528,2.677v6.865c0,1.457-0.091,1.894-0.51,2.659l0.71-0.018
			c0.656-0.019,1.275-0.019,1.876-0.019c0.255,0,0.947,0,2.058,0.019l1.275,0.018h0.273c0.637,0,0.692-0.018,0.801-0.091
			c0.091-0.073,0.127-0.164,0.182-0.455l0.382-1.875c-0.564,0.164-0.929,0.218-1.73,0.218h-2.586v-3.132h1.584
			c0.619,0,0.965,0.018,1.311,0.055V70.74C126.224,70.813,125.896,70.849,125.478,70.849z"/>
		<path fill-rule="evenodd" clip-rule="evenodd" fill="#A5382E" d="M142.113,73.617c0.328,0,0.474-0.018,0.838-0.073l0.164,0.273
			c0.747,1.42,1.384,2.44,2.276,3.642c0.528,0.71,0.893,1.001,1.275,1.001c0.218,0,0.474-0.073,0.729-0.2l1.948-1.074
			c-0.637-0.346-0.911-0.546-1.256-0.856c-0.765-0.729-1.53-1.73-2.604-3.405c1.111-0.765,1.621-1.767,1.621-3.096
			c0-1.111-0.382-2.04-1.129-2.713c-0.783-0.692-1.621-0.947-3.132-0.947l-1.311,0.018c-0.2,0-0.401,0-0.601,0
			c-1.348,0-1.785,0-2.513-0.073c0.418,0.765,0.528,1.274,0.528,2.659v6.883c0,1.493-0.091,1.894-0.51,2.659h3.77
			c-0.419-0.765-0.492-1.147-0.492-2.659v-2.058C141.913,73.617,141.986,73.617,142.113,73.617z M141.64,68.208
			c0.291-0.055,0.418-0.055,0.619-0.055c1.529,0,2.258,0.546,2.258,1.693c0,1.093-0.819,1.712-2.258,1.712
			c-0.146,0-0.328-0.019-0.619-0.037V68.208z"/>
	</g>
	<g>
		<g>
			<path fill-rule="evenodd" clip-rule="evenodd" d="M51.374,55.812l-0.52-7.435l-2.968-0.39l0.035,0.5
				c1.976,0.914,2.454,0.904,2.525,1.927l0.13,1.868l-3.232-0.408l-0.03-1.289l1.269-0.148l-0.019-0.262l-2.991-0.389l0.018,0.262
				l1.241,0.487l0.15,1.292l-2.847-0.375l-0.123-1.749c-0.055-0.785,0.503-0.669,1.895-0.934l-0.033-0.476l-2.535-0.361l0.482,6.899
				l0.266,0.041l0.203-1.209l6.441,0.829l0.376,1.277L51.374,55.812z"/>
			<path fill-rule="evenodd" clip-rule="evenodd" d="M50.844,41.02l-0.245,0.026l-0.039,1.307c-0.206,0.007-0.385-0.006-0.538-0.027
				c-0.142-0.02-0.511-0.132-0.793-0.268c-0.913-0.441-2.112-1.164-3.163-1.312l0.127,3.546l0.248-0.05l0.304-1.306
				c1.087,0.49,2.001,1.184,3.193,1.352c0.437,0.061,0.936,0.023,1.421-0.089L50.844,41.02z M44.042,42.208
				c0.732,0.103,1.234-0.296,1.31-0.839c0.086-0.614-0.396-1.127-1.068-1.222c-0.532-0.075-1.101,0.207-1.192,0.856
				C43.013,41.557,43.475,42.127,44.042,42.208z"/>
			<path fill-rule="evenodd" clip-rule="evenodd" d="M51.396,32.928l-0.151,0.465c0.281,0.254,1.638,1.636,1.284,2.724
				c-0.155,0.477-0.44,0.622-1.075,0.416c-0.522-0.169-0.984-0.483-1.139-0.545l-0.315-3.776c-0.235-0.126-0.478-0.306-0.75-0.394
				c-0.635-0.206-0.939,0.46-1.268,1.469c-0.851,2.62,0.46,4.45,2.604,5.146c1.134,0.368,1.797-0.168,2.207-1.427
				c0.339-1.043,0.215-1.974,0.144-2.95L51.396,32.928z M50.063,35.83c-0.784-0.518-1.909-1.686-1.755-2.163
				c0.03-0.091,0.12-0.137,0.256-0.092c0.227,0.074,0.538,0.351,0.853,0.616c0.334,0.284,0.437,0.43,0.449,0.547L50.063,35.83z"/>
			<path fill-rule="evenodd" clip-rule="evenodd" d="M55.91,29.162c-1.042-1.219-2.77-3.021-2.296-3.877
				c0.15-0.271,0.372-0.448,0.577-0.621l-1.113-1.313c-0.208,0.13-0.485,0.236-0.647,0.528c-0.474,0.855,0.929,2.751,1.663,3.689
				l-0.032,0.009c-0.559-0.542-1.308-1.256-2.591-1.968l-1.076,3.221l0.249,0.042l0.734-1.079c0.829,0.473,2.256,1.687,3.494,2.946
				L55.91,29.162z"/>
			<path fill-rule="evenodd" clip-rule="evenodd" d="M64.364,15.585l1.025-2.043c0.171-0.34,0.167-0.431,0.047-0.859
				c-0.167-0.607-0.465-1.197-0.661-1.542l-0.184,0.041c0.1,0.341,0.201,0.61,0.087,1.006l-0.888,3.184l0.159,1.537l0.207-0.049
				c0.014-0.281,0.015-0.749,0.252-0.948c0.189-0.159,0.443-0.103,0.622,0.11c0.332,0.396,0.323,1.275-0.432,1.909
				c-0.688,0.578-1.357,0.485-1.766-0.002c-0.736-0.877,0.119-1.812,0.6-2.34l-0.045-0.19c-0.334,0.208-0.709,0.502-1.19-0.07
				c-0.424-0.505-0.42-1.069-0.146-1.299c0.384-0.322,0.998,0.273,1.251,0.465l0.262-0.22l-0.589-1.073
				c-0.323,0.146-0.816,0.363-1.309,0.777c-0.646,0.542-1.048,1.273-0.527,1.895c0.501,0.597,1.197,0.251,1.58,0.065l0.027,0.082
				c-0.644,0.592-2.004,1.816-1.104,2.888c0.736,0.877,2.082,0.131,3.056-0.686c1.37-1.15,1.743-2.251,1.058-3.067
				c-0.041-0.049-0.11-0.094-0.152-0.132c-0.387,0.169-0.626,0.317-1.158,0.66L64.364,15.585z"/>
			<path fill-rule="evenodd" clip-rule="evenodd" d="M80.74,6.312l0.907-0.59l-0.04-0.264l-4.138,1.425l0.041,0.264l1.359-0.19
				l0.276,2.376c-0.191,0.179-0.363,0.339-0.6,0.421c-0.992,0.341-1.989-0.173-2.54-1.774c-0.602-1.748-0.049-4.574,1.812-5.214
				c1.229-0.423,1.672,0.572,2.238,1.777l0.519-0.179l-0.303-2.418c-0.776,0.091-2.012,0.163-3.421,0.648
				c-2.92,1.005-3.751,3.902-3.057,5.92c0.773,2.244,2.382,2.56,4.502,1.83c1.263-0.435,2.265-1.297,2.863-1.831
				c-0.054-0.082-0.123-0.21-0.146-0.277c-0.055-0.158-0.091-0.373-0.12-0.64L80.74,6.312z"/>
			<path fill-rule="evenodd" clip-rule="evenodd" d="M90.347,5.441L89.86,5.484c-0.125,0.358-0.866,2.146-2.006,2.246
				c-0.499,0.044-0.745-0.162-0.803-0.827c-0.048-0.546,0.06-1.095,0.057-1.262l3.353-1.766c0.024-0.265,0.095-0.559,0.07-0.844
				c-0.059-0.666-0.79-0.685-1.848-0.593c-2.744,0.24-3.917,2.162-3.72,4.407c0.104,1.188,0.857,1.589,2.176,1.474
				c1.093-0.096,1.901-0.573,2.771-1.021L90.347,5.441z M87.155,5.35c0.17-0.925,0.806-2.417,1.305-2.46
				c0.095-0.008,0.172,0.057,0.185,0.199c0.021,0.238-0.112,0.632-0.233,1.026c-0.131,0.418-0.226,0.57-0.329,0.627L87.155,5.35z"/>
			<path fill-rule="evenodd" clip-rule="evenodd" d="M91.915,10.385c1.093,0.096,1.388-0.262,2.667-1.347
				c1.167-1.023,1.42-1.587,1.677-2.75l0.582-2.679l1.58,0.139l0.165-0.513l-1.651-0.145c0.145-0.969,0.526-2.731,1.548-2.642
				c0.796,0.07,0.703,0.996,0.708,1.618l0.499,0.044l0.509-1.572c-0.556-0.216-1.061-0.464-1.738-0.523
				c-2.696-0.236-3.143,1.999-3.438,2.907l-1.187,0.159l-0.07,0.257l1.128,0.099l-0.78,4.122c-0.156,0.824-0.273,1.616-0.819,1.568
				c-0.226-0.02-0.575-0.266-0.837-0.42L91.915,10.385z"/>
			<path fill-rule="evenodd" clip-rule="evenodd" d="M103.267,8.792l0-0.246l-1.307-0.178c0.035-0.188,0.043-0.371,0.083-0.532
				c0.046-0.186,0.202-0.564,0.378-0.877l2.819-5.589l-3.847-0.443l0.023,0.251l1.504,0.523l-2.461,4.892
				c-0.124,0.252-0.317,0.781-0.378,1.024c-0.075,0.301-0.162,0.894-0.147,1.328L103.267,8.792z"/>
			<path fill-rule="evenodd" clip-rule="evenodd" d="M110.91,5.697c0.324,0.151,0.736,0.001,0.958-0.474
				c0.141-0.303,0.066-0.706-0.247-0.853c-0.368-0.171-0.792,0.091-0.954,0.437C110.466,5.24,110.629,5.566,110.91,5.697z
				 M113.04,6.689c0.324,0.151,0.736,0.001,0.958-0.474c0.141-0.303,0.066-0.706-0.247-0.852c-0.368-0.171-0.792,0.091-0.954,0.437
				C112.595,6.232,112.758,6.559,113.04,6.689z M112.433,12.59l0.046-0.241l-1.249-0.425c0.064-0.193,0.129-0.361,0.194-0.501
				c0.187-0.399,1.617-2.338,2.405-3.154l-1.539-0.875c-0.838,0.951-3.538,3.297-4.24,2.97c-0.086-0.04-0.1-0.152-0.06-0.238
				c0.055-0.119,0.174-0.261,0.278-0.371c0.606-0.651,1.764-1.611,2.505-3.2L107.41,5.67l-0.025,0.251l1.203,0.693
				c-0.451,0.685-1.313,1.519-1.915,2.16c-0.259,0.274-0.549,0.612-0.73,1.001c-0.161,0.346,0.013,0.848,0.564,1.105
				c1.523,0.71,3.429-1.006,4.378-1.8l0.012,0.031c-0.526,0.676-1.203,1.649-1.329,1.92c-0.171,0.367-0.236,0.731-0.294,1.139
				L112.433,12.59z"/>
			<path fill-rule="evenodd" clip-rule="evenodd" d="M116.929,15.759c-1.095-0.825-1.262-1.04-1.313-1.408l0.881-0.217
				c0.278,0.285,0.566,0.576,0.89,0.82c1.657,1.249,2.943,0.83,3.611-0.056c0.129-0.171,0.223-0.414,0.302-0.638l0.829,0.624
				l0.54-0.519l-1.381-0.742c-0.183-0.332-0.347-0.769-1.137-1.365c-1.504-1.134-2.852-1.149-3.699-0.025
				c-0.517,0.686-0.306,1.158-0.188,1.576c-0.904,0.11-1.333,0.264-1.988,0.518c-0.135,0.615-0.002,0.954,0.202,1.376l-0.014,0.019
				l-1.346-0.73c-0.105,0.1-0.229,0.186-0.322,0.31c-0.567,0.752,0.08,1.657,1.308,2.583c1.705,1.284,3.337,1.574,4.177,0.46
				c0.61-0.81,0.03-1.545-0.723-2.112L116.929,15.759z M116.129,17.098c0.353,0.266,0.638,0.481,0.366,0.843
				c-0.294,0.391-1.105,0.317-1.772-0.185c-0.542-0.409-0.775-0.913-0.438-1.36c0.136-0.181,0.363-0.264,0.597-0.237L116.129,17.098
				z M117.589,13.853c0.474-0.629,1.769-1.654,2.302-1.251c0.248,0.187,0.168,0.41-0.032,0.677c-0.574,0.762-1.852,1.606-2.271,1.29
				C117.35,14.389,117.338,14.186,117.589,13.853z"/>
			<path fill-rule="evenodd" clip-rule="evenodd" d="M125.967,22.666l-0.314-0.375c-0.365,0.104-2.255,0.522-2.991-0.355
				c-0.322-0.384-0.294-0.703,0.218-1.132c0.42-0.353,0.931-0.579,1.066-0.677l3.369,1.734c0.232-0.132,0.512-0.243,0.731-0.427
				c0.512-0.429,0.108-1.04-0.574-1.853c-1.771-2.11-4.018-1.968-5.744-0.52c-0.914,0.767-0.81,1.614,0.041,2.627
				c0.705,0.841,1.56,1.229,2.425,1.685L125.967,22.666z M124.211,19.998c0.855-0.391,2.442-0.726,2.764-0.342
				c0.062,0.073,0.053,0.174-0.057,0.266c-0.183,0.153-0.582,0.271-0.974,0.397c-0.418,0.133-0.597,0.143-0.702,0.091
				L124.211,19.998z"/>
			<path fill-rule="evenodd" clip-rule="evenodd" d="M128.249,29.262l0.174-0.174l-0.798-1.051c0.158-0.108,0.292-0.231,0.436-0.317
				c0.164-0.098,0.542-0.256,0.887-0.352l5.946-1.959l-2.407-3.033l-0.162,0.194l0.694,1.433l-5.2,1.719
				c-0.266,0.09-0.777,0.328-0.991,0.457c-0.266,0.16-0.746,0.518-1.042,0.835L128.249,29.262z"/>
			<path fill-rule="evenodd" clip-rule="evenodd" d="M128.735,31.779l0.5,1.82c0.49-0.005,4.783,0.119,5.086,0.999
				c0.035,0.102-0.036,0.189-0.126,0.22c-0.146,0.051-0.297,0.052-0.459,0.058c-1.063-0.012-2.093-0.074-2.668,0.124
				c-0.44,0.152-0.804,0.302-1.18,0.86l1.865,2.485l0.207-0.134l-0.566-1.205c0.157-0.092,0.312-0.158,0.458-0.208
				c0.169-0.058,0.516-0.077,1.308-0.084l0.98-0.01c0.415-0.004,0.822-0.031,1.228-0.17c0.361-0.124,0.609-0.576,0.38-1.241
				c-0.532-1.544-3.272-1.812-4.311-1.971l0.015-0.03l6.442-0.705l-1.697-3.389l-0.198,0.157l0.381,1.546L128.735,31.779z"/>
			<path fill-rule="evenodd" clip-rule="evenodd" d="M131.679,43.807c0.301,2.45,2.142,3.354,4.213,3.099
				c1.373-0.169,1.796-1.122,1.595-2.767c-0.301-2.45-2.157-3.375-4.228-3.121C131.897,41.185,131.474,42.138,131.679,43.807z
				 M132.743,43.075c1.03-0.126,4.212,0.252,4.327,1.187c0.036,0.296-0.117,0.519-0.661,0.585c-1.018,0.125-4.197-0.229-4.308-1.129
				C132.06,43.387,132.21,43.141,132.743,43.075z"/>
			<path fill-rule="evenodd" clip-rule="evenodd" d="M129.646,48.625c-0.096,1.093,0.262,1.388,1.347,2.667
				c1.023,1.167,1.587,1.42,2.75,1.677l2.678,0.582l-0.138,1.58l0.512,0.165l0.145-1.651c0.969,0.145,2.731,0.526,2.642,1.548
				c-0.07,0.796-0.995,0.703-1.618,0.708l-0.043,0.499l1.571,0.509c0.216-0.556,0.464-1.061,0.523-1.738
				c0.236-2.697-1.999-3.144-2.907-3.438l-0.159-1.187l-0.257-0.071l-0.099,1.129l-4.121-0.78c-0.825-0.156-1.616-0.273-1.568-0.819
				c0.02-0.226,0.266-0.575,0.42-0.837L129.646,48.625z"/>
		</g>
	</g>
</g>
<g id="Foreground">
	<path fill="#A5382E" d="M85.471,62.455c-6.183-0.051-45.175,0.085-51.253,0.045c0.502-0.593,34.204-1.494,34.784-1.659
		c0.785-0.224,2.125-0.047,3.04-0.122c1.701-0.139,3.324,0.094,4.982,0.099c0.145,0,0.305-0.195,0.188-0.368
		c-1.006-1.483-2.726-0.203-4.102-0.885c-0.185-0.092-0.609-0.357-0.388-0.504c0.217-0.144,0.757-0.458,1.04-0.073
		c0.207-0.208,0.331-0.301,0.582-0.364c1.385-0.346,2.786-0.437,4.078-0.839c2.169-0.675,3.391-2.826,5.022-4.389
		c-1.679-1.223-1.309-3.697-2.331-5.293c-0.534-0.834-3.962-4.535-4.244-6.749c-0.132-1.034,0.483-1.572,0.271-1.996
		c-0.691-1.374-1.296-3.277-0.413-4.841c0.437-0.773-0.602-1.743-0.275-2.643c0.225-0.62,0.89-1.104,0.992-1.518
		c0.367-1.49-0.414-4.044,1.119-4.544c2.139-0.699,3.981,2.266,4.615,3.081c1.514,1.947,2.531,6.123,3.373,7.52
		c3.28-0.376,5.062-2.109,7.663-3.107c-0.308-1.097-0.417-2.212-0.727-3.342c-0.614-2.246-0.615-4.638,0.391-6.77
		c0.761-1.613,1.825-3.131,3.167-4.215c0.368-0.297,1.485-0.354,2.082-0.056c0.874,0.435,1.669,0.554,2.543,0.92
		c-0.755,1.593,1.189,1.802,1.771,2.947c0.323,0.634-0.931,0.477-0.825,0.732c0.509,1.23,0.312,2.725-0.74,3.57
		c2.179,2.683,4.288,5.288,5.854,8.078c1.75,3.117,0.771,7.744-0.656,10.053c-2.36,3.82-5.413,6.407-10.09,8.343
		c-0.15,0.062-0.528,0.947-0.238,1.46c1.045,1.845,2.235,3.798,4.163,4.346c1.812,0.514,3.695,0.987,5.557,1.26
		c2.796,0.411,5.621,0.487,8.463,0.327c0.969-0.055,34.877,0.995,34.288,1.089c-1.364,0.219-36.846,0.432-38.125,0.418
		c-8.49-0.092-17.123,0.008-25.673-0.011l1.282-1.118c3.803-0.134,7.726,0.275,11.645-0.335c0.243-0.038,0.578-0.457,0.547-0.508
		c-1.592-2.631-6.073-6.48-6.439-6.588c-1.352-0.398-2.435-1.067-3.682-0.174c-2.823,2.022-6.191,3.148-8.132,5.649
		c-0.499,0.643,1.375,1.184,2.206,1.342c0.785,0.149,1.653,0.066,2.436,0.241c0.555,0.125,0.897,0.389,1.366,0.373L85.471,62.455z"
		/>
	<path fill="#FFFFFF" d="M78.285,58.916c-0.481-0.128-0.992-0.333-1.188,0.104c-0.087,0.196,0.446,0.107,0.485,0.2
		c0.466,1.125,1.062,1.966,2.338,1.811c0.157-0.02,0.305-0.2,0.192-0.375c-0.163-0.251-0.466-0.395-0.568-0.647
		c-0.237-0.584,0.094-1.07,0.585-1.436C79.415,58.29,78.882,59.075,78.285,58.916z"/>
	<path fill="#FFFFFF" d="M95.673,55.688c0.353,0.269,0.471-0.257,0.364-0.396c-0.287-0.375-0.952-0.741-1.409-0.239
		C94.937,55.32,95.339,55.434,95.673,55.688z"/>
	<path fill="#FFFFFF" d="M100.851,61.109c0.653-0.126,1.294-0.049,1.854-0.464c-0.908-0.555-1.911-0.081-2.922-0.315
		c-0.188-0.044-0.264,0.549-0.599,0.729C99.737,61.466,100.25,61.224,100.851,61.109z"/>
	<path fill="#FFFFFF" d="M83.408,55.258c0.005-0.142-0.235-0.316-0.347-0.18c-0.548,0.665-1.166,1.156-1.641,1.87
		c-0.038,0.057,0.228,0.288,0.331,0.149C82.279,56.393,83.372,56.25,83.408,55.258z"/>
	<path fill="#FFFFFF" d="M99.863,26.245c1.893,0.024,1.521-2.124,0.564-3.088c-0.101,0.145-0.223,0.291-0.407,0.194
		c-0.34-0.18-0.683-0.689-0.214-1.022c-0.518-0.3-1.233-0.153-1.619-0.651c-0.042-0.055,0.276-0.441,0.366-0.575
		c-0.023-0.16-0.217-0.317-0.393-0.207c-0.723,0.456-1.509,1.161-1.17,2.021c0.469,1.193,2.028-0.085,2.407,0.746
		C99.686,24.297,98.998,25.496,99.863,26.245z"/>
	<path fill="#FFFFFF" d="M100.639,21.701c-0.157-0.125-0.26-0.297-0.428-0.394c-0.18-0.104-0.372,0.046-0.373,0.192
		c-0.002,0.559,0.005,0.891,0.597,0.984c0.397,0.063,1.095,0.28,1.125-0.163C101.578,22.074,100.965,21.96,100.639,21.701z"/>
	<path fill="none" stroke="#FFFFFF" stroke-width="1.2455" stroke-linecap="round" d="M84.428,42.574
		c0.17,1.259,0.646,2.598,1.174,3.292c0.752,0.987,2.772,2.411,4.625,2.715"/>
	<path fill="none" stroke="#FFFFFF" stroke-width="1.2455" stroke-linecap="round" d="M94.731,24.606
		c-0.595,1.956-0.239,4.104,0.622,5.902"/>
	<path fill="none" stroke="#FFFFFF" stroke-width="1.2455" stroke-linecap="round" d="M79.462,26.991
		c-0.479,0.521-0.64,0.869-0.415,1.916"/>
	<path fill="none" stroke="#FFFFFF" stroke-width="1.2455" stroke-linecap="round" d="M78.32,31.703
		c-0.424,0.405-0.383,1.047,0,1.553"/>
	<path fill="none" stroke="#FFFFFF" stroke-width="1.2455" stroke-linecap="round" d="M77.696,35.635
		c-0.286,0.411-0.17,0.848,0.104,1.243"/>
	<path fill="none" stroke="#FFFFFF" stroke-width="0.501" d="M96.958,19.946c0-0.207,2.589-0.052,3.366,0.829"/>
	<path fill="none" stroke="#FFFFFF" stroke-width="1.2455" stroke-linecap="round" d="M101.204,35.221
		c1.721,1.027,1.816,4.859,1.397,6.056c-0.653,1.871-1.905,3.812-3.262,5.335"/>
</g>
</svg>
